<svg xmlns="http://www.w3.org/2000/svg" xml:space="preserve" width="1081.3027" height="200" viewBox="0 0 1081.3027 200"><path d="M1062.689 843.286h-29.877V782.28c0-2.987 1.308-4.602 3.902-4.914 9.35-1.13 24.954-.944 32.571.578 4.909.98 8.339 2.459 10.264 4.48 1.895 1.992 2.862 5.247 2.891 9.762v57.287c0 4.946 4.048 8.992 8.991 8.992s8.991-4.048 8.991-8.991v-32.897h15.831v32.897c0 4.945 4.048 8.99 8.992 8.99 4.942 0 8.989-4.047 8.989-8.99v-117.18c0-4.941-4.045-8.991-8.989-8.991-4.945 0-8.992 4.047-8.992 8.992v69.483h-15.831v-69.483c0-4.942-4.046-8.992-8.991-8.992-4.944 0-8.991 4.047-8.991 8.992v37.701c-2.795-2.988-7.95-5.357-15.466-7.084-6.744-1.548-18.174-2.312-27.714-2.312-4.144 0-7.951.193-11.421.578-4.915.483-8.384 2.217-10.408 5.204-2.293 3.315-2.601 7.718-2.601 11.6v71.491c0 4.374 3.166 8.042 7.315 8.833.499.105 1.013.16 1.543.16h39.001c4.173 0 7.59-3.416 7.59-7.59 0-4.175-3.416-7.59-7.59-7.59m225.606-41.81c4.174 0 7.59 3.416 7.59 7.59 0 4.175-3.417 7.59-7.59 7.59h-11.734v32.818c0 4.943-4.049 8.992-8.993 8.992-4.942 0-8.99-4.047-8.99-8.992v-79.306c0-4.944 4.045-8.99 8.99-8.99 4.946 0 8.993 4.049 8.993 8.99v31.309zm-104.686-69.182v27.41c0 4.946 4.049 8.993 8.991 8.993 4.943 0 8.991-4.05 8.991-8.993v-21.256h67.38c4.172 0 7.59-3.416 7.59-7.59 0-4.175-3.416-7.59-7.59-7.59H1192.6c-.61 0-1.203.075-1.772.213-4.104.828-7.219 4.474-7.219 8.813M1227.607 831h5.802c4.174 0 7.59 3.414 7.59 7.589 0 4.175-3.418 7.59-7.59 7.59h-25.342v7.776c0 4.943-4.047 8.992-8.991 8.992-4.941 0-8.99-4.047-8.99-8.992v-7.776h-25.342c-4.171 0-7.59-3.418-7.59-7.59 0-4.173 3.416-7.59 7.59-7.59H1170.549a34.869 34.869 0 0 1-6.501-20.323c0-19.342 15.694-35.028 35.028-35.028 19.337 0 35.029 15.686 35.029 35.028a34.874 34.874 0 0 1-6.498 20.324m-28.531-2.748c7.821 0 14.166-7.87 14.166-17.576s-6.345-17.578-14.166-17.578c-7.819 0-14.166 7.872-14.166 17.578 0 9.707 6.347 17.576 14.166 17.576m147.063-95.958v19.894c0 2.428.976 4.64 2.556 6.263a7.578 7.578 0 0 0 5.815 2.727h66.596v10.283h-67.377c-4.176 0-7.59 3.418-7.59 7.589 0 4.17 3.418 7.59 7.59 7.59h75.049a8.93 8.93 0 0 0 3.167-.095 7.586 7.586 0 0 0 4.03-2.006 8.981 8.981 0 0 0 3.113-6.793v-22.757c0-4.335-3.111-7.983-7.213-8.813a7.581 7.581 0 0 0-1.546-.176l-.073-.001h-.02l-.138-.001h-65.979v-7.515h67.38c4.172 0 7.589-3.416 7.589-7.59 0-4.174-3.415-7.59-7.589-7.59h-76.37v.002l-.194.002h-.037l-.158.008c-4.765.205-8.601 4.165-8.601 8.979m74.967 95.814h-23.774v-.071h-9.723c-8.412-17.613-31.815-30.431-60.641-38.314-3.55-.576-7.168 1.395-8.513 4.873-1.544 3.984.404 8.492 4.383 10.043 24.759 7.809 42.511 19.279 45.127 34.455.483 2.793-.772 4.192-3.758 4.192h-36.934c-4.173 0-7.589 3.419-7.589 7.59 0 4.172 3.418 7.59 7.589 7.59h47.614a7.46 7.46 0 0 0 1.475-.147h6.349c7.518 0 10.937-3.565 10.264-10.696a30.365 30.365 0 0 0-.435-2.892l-.358-1.445h28.924v6.188c0 4.945 4.049 8.992 8.992 8.992 4.942 0 8.99-4.05 8.99-8.992v-47.646c0-4.943-4.045-8.992-8.99-8.992-4.875 0-8.876 3.935-8.989 8.783h-27.642c-4.174 0-7.589 3.419-7.589 7.59 0 4.174 3.416 7.59 7.589 7.59h27.639zm172.49-63.967v-31.847c0-4.944-4.049-8.99-8.99-8.99-4.944 0-8.992 4.049-8.992 8.99v25.695h-72.005c-4.171 0-7.589 3.416-7.589 7.589 0 4.174 3.415 7.59 7.589 7.59h80.997c.622 0 1.227-.075 1.808-.218 4.086-.842 7.182-4.482 7.182-8.81m-17.983 45.882h-15.83V788.38c0-4.941-4.046-8.99-8.991-8.99-4.945 0-8.99 4.045-8.99 8.99v61.093c0 4.945 4.049 8.992 8.99 8.992 4.942 0 8.991-4.05 8.991-8.992V825.2h15.83v24.273c0 4.945 4.049 8.992 8.992 8.992 4.942 0 8.991-4.05 8.991-8.992V788.38c0-4.941-4.047-8.99-8.991-8.99-4.946 0-8.992 4.045-8.992 8.99zm-72.945 17.632c-7.172 0-12.996-7.22-12.996-16.126 0-8.905 5.824-16.127 12.996-16.127 7.176 0 12.997 7.222 12.997 16.127 0 8.906-5.821 16.126-12.997 16.126m27.683 3.346h-2.12a31.98 31.98 0 0 0 6.575-19.472c0-17.746-14.398-32.137-32.139-32.137-17.738 0-32.135 14.39-32.135 32.137 0 7.32 2.454 14.068 6.577 19.472h-2.124c-4.173 0-7.588 3.416-7.588 7.589 0 4.172 3.418 7.589 7.588 7.589h18.693v7.777c0 4.945 4.049 8.992 8.991 8.992 4.942 0 8.991-4.05 8.991-8.992v-7.777h18.691c4.171 0 7.589-3.414 7.589-7.59 0-4.173-3.415-7.588-7.589-7.588m290.244-3.877c-8.197 0-14.85-7.141-14.85-15.947 0-8.807 6.653-15.951 14.85-15.951s14.851 7.144 14.851 15.95c0 8.807-6.654 15.948-14.851 15.948m-157.121 2.062c-7.819 0-14.166-7.448-14.166-16.638 0-9.185 6.347-16.636 14.166-16.636 7.821 0 14.167 7.45 14.167 16.636 0 9.19-6.346 16.638-14.167 16.638m61.96-39.716v-1.088c0-4.945 4.046-8.99 8.99-8.99 4.945 0 8.991 4.049 8.991 8.99v61.093c0 4.943-4.049 8.992-8.991 8.992-4.942 0-8.99-4.047-8.99-8.992V828.08h-15.994c-4.171 0-7.588-3.42-7.588-7.59s3.415-7.59 7.588-7.59h15.994v-8.251h-15.994c-4.171 0-7.588-3.418-7.588-7.59 0-4.171 3.415-7.59 7.588-7.59zm-57.276-25.4h57.276v2.285c0 4.942 4.046 8.99 8.99 8.99 4.945 0 8.991-4.045 8.991-8.99v-34.06c0-4.944-4.049-8.99-8.991-8.99H1658.905a7.5 7.5 0 0 0-2.889.577c-3.401 1.285-5.841 4.579-5.841 8.413v34.06c0 4.942 4.046 8.99 8.991 8.99 4.945 0 8.992-4.045 8.992-8.99zm57.276-15.178h-57.275v-10.407h57.275zm-70.95 97.288v7.776c0 4.945 4.048 8.992 8.991 8.992 4.942 0 8.991-4.05 8.991-8.992v-7.776h25.342c4.171 0 7.589-3.415 7.589-7.59s-3.416-7.59-7.589-7.59h-5.23c3.741-5.275 5.925-11.622 5.925-18.452 0-18.308-15.693-33.154-35.029-33.154-19.334 0-35.028 14.846-35.028 33.154 0 6.83 2.186 13.177 5.928 18.453h-5.231c-4.175 0-7.59 3.418-7.59 7.589 0 4.172 3.417 7.59 7.59 7.59zm242.148 3.295v-117.18c0-4.944-4.049-8.991-8.991-8.991-4.942 0-8.991 4.05-8.991 8.99v27.439c-4.626-4.817-14.362-7.781-29.2-8.962-2.192-.175-7.014-.314-13.262-.413v.026h-56.286c-4.174 0-7.589 3.419-7.589 7.59 0 4.17 3.418 7.59 7.589 7.59h31.703v12.855h-.131v1.967c-15.859 3.514-27.597 15.967-27.597 30.79 0 6.286 2.113 12.146 5.75 17.077h-1.196l.001.002h-4.048c-4.174 0-7.589 3.416-7.589 7.589 0 4.17 3.417 7.59 7.589 7.59h27.221v7.777c0 4.945 4.048 8.99 8.99 8.99 4.943 0 8.991-4.048 8.991-8.99v-7.777h27.221c4.171 0 7.59-3.415 7.59-7.59 0-4.174-3.416-7.59-7.59-7.59h-3.539v-.001h-1.706c3.637-4.931 5.749-10.791 5.749-17.076 0-14.824-11.736-27.277-27.595-30.791v-1.967h-.132v-12.855H1836.186c9.2.144 19.899.508 24.827 1.109 10.966 1.34 16.814 5.59 17.554 12.72h.081v70.082c0 4.943 4.045 8.99 8.991 8.99 4.945 0 8.991-4.045 8.991-8.99" style="fill:#231f20;fill-opacity:1;fill-rule:evenodd;stroke:none" transform="matrix(.75921 0 0 -.75921 -358.64 678.865)"/><path d="M1896.632 675.451h-6.73v17.884c0 1.77-.427 2.95-1.283 3.541-.62.413-1.712.62-3.275.62-2.096 0-3.645-.207-4.648-.62v-21.425h-6.596v26.34h5.71l.265-1.64c2.333 1.417 5.018 2.126 8.058 2.126 2.39 0 4.19-.399 5.4-1.195 2.067-1.358 3.099-3.897 3.099-7.615zm-33.458 13.19c0 6.05-1.903 9.076-5.711 9.076-3.75 0-5.622-3.026-5.622-9.076 0-6.049 1.873-9.075 5.622-9.075 3.808 0 5.71 3.026 5.71 9.075m6.64.09c0-5.579-1.592-9.518-4.78-11.82-2.007-1.417-4.546-2.126-7.614-2.126-8.145 0-12.22 4.59-12.22 13.77 0 5.577 1.579 9.501 4.739 11.774 1.976 1.446 4.515 2.17 7.612 2.17 8.177 0 12.264-4.59 12.264-13.769m-28.9-13.279h-6.64v26.34h6.64zm.178 31.342h-7.04v5.224h7.04zm-9.554-9.475v4.472h-7.481v6.728l-6.552-1.637v-5.09h-4.161v-4.473h4.117V683.64c0-3.572.753-5.992 2.257-7.26 1.032-.886 2.745-1.329 5.136-1.329 2.772 0 4.986.252 6.638.754v4.071h-3.497c-1.445 0-2.42.223-2.92.665-.62.56-.93 1.725-.93 3.497v13.28zm-27.616-17.13v7.524c-2.213-.443-4.072-.93-5.578-1.46-2.036-.738-3.055-1.992-3.055-3.764 0-2.125 1.328-3.187 3.985-3.187 1.712 0 3.26.296 4.648.886m9.828-3.808c-1.417-.914-3.202-1.37-5.356-1.37-2.184 0-3.528.647-4.03 1.945-2.212-1.415-4.795-2.124-7.747-2.124-5.252 0-7.88 2.45-7.88 7.35 0 3.127 1.697 5.37 5.092 6.727 2.803 1.093 6.139 1.964 10.004 2.612V694c0 1.475-.43 2.434-1.283 2.877-.648.354-1.874.531-3.675.531h-8.278v3.364c3.779 1.063 7.32 1.595 10.624 1.595 6.08 0 9.12-2.42 9.12-7.262v-15.228h3.409zm-28.853-.928h-6.642v26.34h6.642zm.176 31.342h-7.04v5.224h7.04zm-10.573-30.856c-1.652-.59-4.117-.886-7.392-.886-8.028 0-12.041 4.427-12.041 13.281 0 5.577 1.843 9.488 5.533 11.731 2.272 1.386 5.12 2.081 8.544 2.081 2.125 0 3.749-.103 4.869-.31v-4.427h-2.921c-2.568 0-4.53-.458-5.89-1.372-2.123-1.387-3.185-3.88-3.185-7.48 0-3.602.943-6.067 2.833-7.393 1.21-.857 2.98-1.286 5.312-1.286h4.338zm-29.21 12.704c0 6.05-1.902 9.076-5.711 9.076-3.748 0-5.62-3.026-5.62-9.076 0-6.049 1.872-9.075 5.62-9.075 3.809 0 5.71 3.026 5.71 9.075m6.642.09c0-5.579-1.594-9.518-4.781-11.82-2.007-1.417-4.545-2.126-7.614-2.126-8.145 0-12.217 4.59-12.217 13.77 0 5.577 1.579 9.501 4.736 11.774 1.976 1.446 4.515 2.17 7.614 2.17 8.175 0 12.262-4.59 12.262-13.769m-27.35-6.596c0-4.81-3.674-7.214-11.023-7.214-3.038 0-5.533.22-7.481.664v4.292h8.499c2.36 0 3.542.694 3.542 2.081 0 .887-.827 1.86-2.48 2.922-1.504.914-3.584 2.258-6.241 4.028-2.244 1.653-3.364 3.763-3.364 6.331 0 4.721 3.66 7.083 10.978 7.083a35.82 35.82 0 0 0 6.685-.62v-4.294h-7.747c-2.361 0-3.542-.679-3.542-2.036 0-.826.784-1.728 2.346-2.7 1.476-.915 3.572-2.288 6.287-4.117 2.36-1.772 3.54-3.91 3.54-6.42m-21.194 0c0-4.81-3.674-7.214-11.024-7.214-3.04 0-5.534.22-7.481.664v4.292h8.5c2.36 0 3.54.694 3.54 2.081 0 .887-.825 1.86-2.477 2.922-1.506.914-3.586 2.258-6.242 4.028-2.245 1.653-3.365 3.763-3.365 6.331 0 4.721 3.66 7.083 10.979 7.083 2.27 0 4.5-.206 6.684-.62v-4.294h-7.747c-2.361 0-3.541-.679-3.541-2.036 0-.826.78-1.728 2.346-2.7 1.475-.915 3.57-2.288 6.286-4.117 2.36-1.772 3.542-3.91 3.542-6.42m-30.273 5.401-5.178 16.557-5.446-16.557zm10.758-12.084h-7.481l-2.347 7.215h-12.572l-2.391-7.215h-7.037l11.906 33.864h8.368zm-43.153 6.683c0-4.81-3.674-7.214-11.024-7.214-3.04 0-5.534.22-7.481.664v4.292h8.5c2.36 0 3.54.694 3.54 2.081 0 .887-.825 1.86-2.477 2.922-1.505.914-3.586 2.258-6.243 4.028-2.243 1.653-3.364 3.763-3.364 6.331 0 4.721 3.66 7.083 10.979 7.083a35.81 35.81 0 0 0 6.684-.62v-4.294h-7.747c-2.36 0-3.542-.679-3.542-2.036 0-.826.783-1.728 2.347-2.7 1.475-.915 3.572-2.288 6.287-4.117 2.36-1.772 3.54-3.91 3.54-6.42m-22.743-6.683h-6.643v26.34h6.643zm.177 31.342h-7.04v5.224h7.04zm-10.75-24.659c0-4.81-3.674-7.214-11.024-7.214-3.04 0-5.533.22-7.481.664v4.292h8.5c2.36 0 3.542.694 3.542 2.081 0 .887-.826 1.86-2.48 2.922-1.505.914-3.586 2.258-6.241 4.028-2.244 1.653-3.365 3.763-3.365 6.331 0 4.721 3.66 7.083 10.978 7.083 2.273 0 4.502-.206 6.685-.62v-4.294h-7.747c-2.361 0-3.541-.679-3.541-2.036 0-.826.782-1.728 2.345-2.7 1.476-.915 3.573-2.288 6.288-4.117 2.36-1.772 3.54-3.91 3.54-6.42m-28.19 6.507c0 6.05-1.903 9.076-5.711 9.076-3.75 0-5.622-3.026-5.622-9.076 0-6.049 1.873-9.075 5.622-9.075 3.808 0 5.71 3.026 5.71 9.075m6.64.09c0-5.579-1.592-9.518-4.78-11.82-2.007-1.417-4.545-2.126-7.614-2.126-8.145 0-12.22 4.59-12.22 13.77 0 5.577 1.58 9.501 4.739 11.774 1.975 1.446 4.515 2.17 7.612 2.17 8.176 0 12.263-4.59 12.263-13.769m-28.81-13.279h-6.64v36.92h6.64zm-12.122 0h-5.667l-.31 1.637c-.855-.532-2.035-1.018-3.54-1.46-1.711-.474-3.32-.708-4.825-.708-2.332 0-4.09.412-5.268 1.237-1.948 1.328-2.921 3.853-2.921 7.571v18.062h6.683v-17.929c0-1.77.442-2.967 1.329-3.586.62-.413 1.712-.619 3.274-.619 1.683 0 3.219.206 4.605.62v21.514h6.64zm-26.021.486c-1.653-.59-4.118-.886-7.394-.886-8.026 0-12.041 4.427-12.041 13.281 0 5.577 1.846 9.488 5.534 11.731 2.274 1.386 5.12 2.081 8.544 2.081 2.125 0 3.749-.103 4.869-.31v-4.427h-2.921c-2.568 0-4.53-.458-5.887-1.372-2.125-1.387-3.188-3.88-3.188-7.48 0-3.602.944-6.067 2.833-7.393 1.21-.857 2.98-1.286 5.313-1.286h4.338zm-19.958 21.381h-2.391c-2.862 0-5.061-.722-6.594-2.168v-19.699h-6.641v26.34h5.4l.399-2.569c1.83 2.184 4.354 3.276 7.569 3.276.798 0 1.55-.059 2.258-.177zm-26.154-6.02c0 4.426-1.712 6.64-5.135 6.64-3.661 0-5.593-2.214-5.8-6.64zm5.976-4.029h-16.866c0-3.129.973-5.252 2.92-6.375 1.21-.678 3.159-1.018 5.844-1.018h7.394v-3.497c-2.333-.973-5.578-1.459-9.74-1.459-8.53 0-12.792 4.396-12.792 13.19 0 5.666 1.548 9.665 4.647 11.997 2.037 1.535 4.618 2.303 7.746 2.303 7.232 0 10.847-4.236 10.847-12.706zm-33.061 1.638c0 3.365-.693 5.711-2.082 7.04-.943.914-2.33 1.371-4.16 1.371-1.623 0-2.817-.133-3.586-.398v-17.044h1.948c2.214 0 3.925.458 5.136 1.374 1.83 1.416 2.744 3.97 2.744 7.657m6.817.487c0-5.578-1.932-9.547-5.8-11.909-2.478-1.534-5.532-2.302-9.161-2.302-3.307 0-6.081.296-8.324.887v36.3h6.64v-11.775c1.83 1.032 3.926 1.55 6.287 1.55 6.907 0 10.358-4.25 10.358-12.75m-28.766-13.944h-5.667l-.31 1.637c-.855-.532-2.037-1.018-3.54-1.46-1.711-.474-3.321-.708-4.826-.708-2.333 0-4.088.412-5.268 1.237-1.948 1.328-2.922 3.853-2.922 7.571v18.062h6.685v-17.929c0-1.77.442-2.967 1.328-3.586.62-.413 1.712-.619 3.275-.619 1.683 0 3.218.206 4.605.62v21.514h6.64zm-24.695 28.773h-10.092v-28.773h-6.73v28.773h-10.05v5.091h26.872zm-39.832-28.773h-6.641v36.92h6.64zm-19.205 4.736v7.525c-2.212-.443-4.073-.93-5.576-1.46-2.038-.738-3.056-1.992-3.056-3.764 0-2.125 1.328-3.187 3.984-3.187 1.712 0 3.26.296 4.648.886m9.828-3.808c-1.416-.914-3.202-1.37-5.358-1.37-2.183 0-3.525.647-4.027 1.945-2.213-1.415-4.795-2.124-7.747-2.124-5.253 0-7.88 2.45-7.88 7.35 0 3.127 1.696 5.37 5.092 6.727 2.803 1.093 6.139 1.964 10.004 2.612V694c0 1.475-.43 2.434-1.283 2.877-.65.354-1.876.531-3.675.531h-8.278v3.364c3.777 1.063 7.319 1.595 10.623 1.595 6.082 0 9.12-2.42 9.12-7.262v-15.228h3.409zm-28.59-.928h-6.73v17.884c0 1.77-.426 2.95-1.283 3.541-.62.413-1.712.62-3.275.62-2.096 0-3.646-.207-4.65-.62v-21.425h-6.593v26.34h5.71l.266-1.64c2.33 1.417 5.016 2.126 8.056 2.126 2.39 0 4.19-.399 5.4-1.195 2.066-1.358 3.099-3.897 3.099-7.615zm-33.46 13.19c0 6.05-1.901 9.076-5.71 9.076-3.748 0-5.621-3.026-5.621-9.076 0-6.049 1.873-9.075 5.622-9.075 3.808 0 5.71 3.026 5.71 9.075m6.64.09c0-5.579-1.592-9.518-4.781-11.82-2.005-1.417-4.545-2.126-7.615-2.126-8.144 0-12.217 4.59-12.217 13.77 0 5.577 1.579 9.501 4.737 11.774 1.976 1.446 4.515 2.17 7.613 2.17 8.176 0 12.264-4.59 12.264-13.769m-28.9-13.279h-6.64v26.34h6.64zm.179 31.342h-7.04v5.224h7.04zm-9.557-9.475v4.472h-7.48v6.728l-6.553-1.637v-5.09h-4.16v-4.473h4.117V683.64c0-3.572.753-5.992 2.258-7.26 1.032-.886 2.744-1.329 5.135-1.329 2.773 0 4.987.252 6.64.754v4.071h-3.498c-1.445 0-2.42.223-2.92.665-.62.56-.93 1.725-.93 3.497v13.28zm-27.615-17.13v7.524c-2.213-.443-4.072-.93-5.577-1.46-2.036-.738-3.055-1.992-3.055-3.764 0-2.125 1.328-3.187 3.984-3.187 1.714 0 3.262.296 4.648.886m9.828-3.808c-1.416-.914-3.201-1.37-5.356-1.37-2.184 0-3.527.647-4.03 1.945-2.211-1.415-4.794-2.124-7.746-2.124-5.253 0-7.88 2.45-7.88 7.35 0 3.127 1.698 5.37 5.09 6.727 2.805 1.093 6.14 1.964 10.006 2.612V694c0 1.475-.428 2.434-1.284 2.877-.65.354-1.874.531-3.674.531h-8.278v3.364c3.777 1.063 7.32 1.595 10.624 1.595 6.08 0 9.12-2.42 9.12-7.262v-15.228h3.408zm-29.562-.928h-9.075a795.823 795.823 0 0 0-4.87 9.563c-3.246 6.58-5.121 10.607-5.622 12.083-1.122 3.16-1.815 5.43-2.081 6.817h-.62c.266-3.363.399-6.109.399-8.234v-20.229h-5.58v33.864h9.166l4.869-9.872a638.498 638.498 0 0 0 5.579-11.775c1.21-3.423 1.917-5.696 2.125-6.817h.575c-.324 2.45-.487 5.18-.487 8.188v20.276h5.622zm-43.907 0h-6.73v17.884c0 1.77-.427 2.95-1.283 3.541-.62.413-1.711.62-3.275.62-2.095 0-3.645-.207-4.65-.62v-21.425h-6.594v26.34h5.71l.265-1.64c2.332 1.417 5.018 2.126 8.058 2.126 2.39 0 4.19-.399 5.4-1.195 2.066-1.358 3.099-3.897 3.099-7.615zm-35.097 4.736v7.525c-2.213-.443-4.071-.93-5.577-1.46-2.036-.738-3.055-1.992-3.055-3.764 0-2.125 1.328-3.187 3.984-3.187 1.713 0 3.262.296 4.648.886m9.829-3.808c-1.417-.914-3.202-1.37-5.358-1.37-2.183 0-3.525.647-4.028 1.945-2.213-1.415-4.796-2.124-7.747-2.124-5.253 0-7.88 2.45-7.88 7.35 0 3.127 1.697 5.37 5.09 6.727 2.805 1.093 6.14 1.964 10.006 2.612V694c0 1.475-.428 2.434-1.284 2.877-.65.354-1.873.531-3.674.531h-8.278v3.364c3.777 1.063 7.319 1.595 10.624 1.595 6.08 0 9.12-2.42 9.12-7.262v-15.228h3.409zm-33.901 14.92c0 4.425-1.712 6.64-5.137 6.64-3.66 0-5.592-2.215-5.798-6.64zm5.975-4.03h-16.866c0-3.129.973-5.252 2.922-6.375 1.209-.678 3.157-1.018 5.844-1.018h7.392v-3.497c-2.332-.973-5.578-1.459-9.74-1.459-8.528 0-12.793 4.396-12.793 13.19 0 5.666 1.55 9.665 4.648 11.997 2.037 1.535 4.619 2.303 7.746 2.303 7.232 0 10.847-4.236 10.847-12.706zm-23.721 10.05h-2.39c-2.862 0-5.06-.723-6.594-2.169v-19.699h-6.643v26.34h5.4l.4-2.569c1.83 2.184 4.353 3.276 7.57 3.276.797 0 1.55-.059 2.257-.177zm-26.553-8.678c0 6.05-1.903 9.076-5.711 9.076-3.747 0-5.62-3.026-5.62-9.076 0-6.049 1.873-9.075 5.62-9.075 3.808 0 5.71 3.026 5.71 9.075m6.642.09c0-5.579-1.593-9.518-4.781-11.82-2.006-1.417-4.545-2.126-7.615-2.126-8.145 0-12.217 4.59-12.217 13.77 0 5.577 1.579 9.501 4.736 11.774 1.977 1.446 4.517 2.17 7.614 2.17 8.176 0 12.263-4.59 12.263-13.769m-25.181-13.279h-8.012l-10.093 14.52h-3.276v-14.52h-6.685v33.864h6.685V695.06h3.276l9.96 14.255h7.747l-12.22-16.468z" style="fill:#656263;fill-opacity:1;fill-rule:nonzero;stroke:none" transform="matrix(.75921 0 0 -.75921 -358.64 678.865)"/><path d="M483.128 718.137c-5.907 0-10.74-4.834-10.74-10.742 0-5.907 4.834-10.74 10.74-10.74h51.556l.274.003.276.012.272.018.272.023.268.03.267.04.264.044.264.05.26.058.257.063.256.07.253.076.25.082.248.087.245.094.244.098.239.106.235.11.233.117.23.12.226.13.223.13.22.14.217.14.212.15.209.152.205.158.2.16.199.168.193.172.189.175.185.18.179.185.177.19.17.19.168.199.16.2.159.206.152.21.149.212.142.216.137.22.132.224.128.226.122.23.116.232.11.238.106.237.099.243.094.246.087.248.083.249.075.254.069.255.064.258.058.26.049.263.045.264.038.268.03.269.025.27.018.273.01.273.005.276v57.832c0 5.905-4.836 10.74-10.74 10.74h-.001c-5.906 0-10.741-4.832-10.741-10.74v-47.09zm-.002 175.928h51.559v-.001l.273-.001v-.001l.276-.01.272-.017v-.001l.272-.023v-.001l.268-.03.267-.038.264-.044.264-.051v-.001l.26-.055v-.002l.257-.062v-.001l.256-.068.253-.076.25-.081.248-.088.245-.094v-.001l.244-.1.239-.103v-.001l.235-.11v-.001l.233-.116.23-.121v-.001l.226-.126.223-.132.22-.138.217-.143.212-.147v-.001l.209-.152.205-.158.2-.163v-.001l.199-.166.193-.171v-.001l.189-.174v-.001l.185-.181v-.001l.179-.183.177-.19.17-.191v-.002l.168-.196.16-.2v-.001l.159-.205.152-.208.149-.213.142-.215v-.001l.137-.22.132-.222v-.002l.128-.226v-.001l.122-.23.116-.232.11-.235.106-.241.099-.241.094-.245.087-.248.083-.251.075-.251.069-.257.064-.26.058-.26.049-.262.045-.264.038-.266.03-.27.025-.272.018-.272.01-.275.005-.277v-25.986l20.584 31.633c2.595 3.7 6.856 5.704 10.992 5.094h64.902c2.239.322 4.569-.07 6.693-1.33 3.496-2.07 5.385-5.846 5.245-9.658a10.68 10.68 0 0 0-2.525-6.652l-52.61-80.245 53.892-82.82c3.005-5.086 1.316-11.705-3.765-14.715a10.208 10.208 0 0 0-1.202-.61 10.629 10.629 0 0 0-4.525-1.008h-60.778c-5.907 0-10.741 4.832-10.741 10.74 0 5.907 4.834 10.74 10.74 10.74h41.315l-46.94 72.137a10.668 10.668 0 0 0-1.47 6.073v.025a10.66 10.66 0 0 0 1.482 5.033l46.424 70.808h-42.186L543.937 815.7c-3.221-4.95-9.634-6.778-14.716-3.766-3.061 1.814-4.891 4.937-5.206 8.245-.048.407-.072.82-.072 1.24v51.164h-40.817c-5.908 0-10.741 4.834-10.741 10.74 0 5.909 4.833 10.742 10.74 10.742" style="fill:#ed1c24;fill-opacity:1;fill-rule:evenodd;stroke:none" transform="matrix(.75921 0 0 -.75921 -358.64 678.865)"/><path d="M716.778 845.653v37.67c0 5.908 4.833 10.741 10.741 10.741.76 0 1.503-.08 2.22-.234.72.153 1.464.235 2.227.235h138.73c.76 0 1.502-.08 2.22-.232.72.152 1.464.232 2.225.232 5.906 0 10.741-4.834 10.741-10.742v-62.42l-.004-.275-.01-.275-.018-.27-.024-.275-.032-.265v-.002l-.037-.266-.044-.266-.05-.263-.059-.26-.063-.258v-.002l-.07-.254-.075-.252v-.002l-.082-.25-.086-.248-.095-.244v-.002l-.1-.24v-.002l-.106-.238-.11-.237-.117-.232-.12-.229-.129-.226v-.002l-.132-.222-.138-.219-.14-.217-.15-.213-.152-.207v-.002l-.158-.203-.16-.2v-.003l-.168-.196-.17-.193v-.002l-.177-.187v-.002l-.18-.184v-.002l-.186-.178v-.002l-.188-.174-.195-.17v-.002l-.195-.167c-.067-.055-.137-.108-.203-.16l-.205-.159-.208-.152-.213-.148-.217-.14-.218-.14-.224-.133-.226-.126-.23-.122-.232-.117-.236-.109-.24-.108a5.121 5.121 0 0 0-.243-.097v-.002l-.245-.093-.248-.088-.25-.082-.254-.075-.254-.068-.259-.065-.259-.058-.265-.05-.264-.045-.268-.037-.266-.033-.273-.023-.27-.018-.276-.01-.275-.003H841.93V707.47l.002-.092c0-2.4-.8-4.62-2.145-6.415l-.157-.205c-.054-.067-.105-.134-.16-.2l-.002-.002-.166-.196-.17-.193h-.002l-.176-.188v-.002l-.178-.183h-.002l-.183-.18-.19-.176-.193-.17v-.002l-.197-.168h-.002l-.199-.16-.204-.158h-.003l-.208-.152-.21-.149h-.002l-.216-.14v-.002l-.22-.137h-.002l-.222-.13v-.003l-.226-.127-.23-.12v-.002l-.233-.116-.236-.11-.239-.107-.242-.098-.002-.002-.243-.092-.248-.087h-.002l-.249-.082-.253-.076-.255-.07h-.002l-.257-.063-.259-.058-.264-.05-.264-.045-.268-.037-.267-.03v-.002l-.272-.022-.272-.018v-.002l-.275-.01-.275-.004h-32.053c-5.907 0-10.74 4.832-10.74 10.741 0 5.908 4.833 10.74 10.74 10.74h21.311v102.785c0 1.385.264 2.713.747 3.931l.1.241c.035.08.068.16.104.24h.001l.11.236h.001l.116.235.121.228h.001l.126.227.132.224h.001l.136.22h.001l.143.214.147.215.153.207h.001l.157.206.162.2.167.198.172.193.176.188.181.184.183.182.188.174.195.172.196.167.201.163.205.157v.002l.208.15v.002l.214.145v.001l.215.143.221.14.222.131.227.125.23.122v.001l.233.116.235.111h.002l.238.104.002.002.24.098.001.001.244.092.001.002.246.086.002.002.25.08.001.002.251.074h.002l.254.068.001.002.257.063h.002l.26.056.261.051.002.002.263.041.001.002.265.037h.002l.268.032h.001l.27.023.001.002.272.016h.001l.274.01.001.001.276.002H864.4v40.94H738.26v-26.93c0-5.908-4.834-10.74-10.74-10.74-5.909 0-10.742 4.832-10.742 10.74" style="fill:#66c993;fill-opacity:1;fill-rule:evenodd;stroke:none" transform="matrix(.75921 0 0 -.75921 -358.64 678.865)"/><path d="m679.786 752.778-.276-.003-.275-.012-.272-.017-.272-.025-.268-.03-.267-.039-.265-.043-.263-.05-.259-.057-.259-.065-.255-.07-.253-.075-.25-.08-.248-.089-.245-.094-.243-.099-.24-.106-.235-.11-.233-.117-.23-.122-.225-.128-.225-.132-.219-.137-.217-.142-.213-.147-.209-.153-.204-.158-.202-.16-.197-.17-.192-.17-.19-.176-.184-.18-.18-.185-.176-.189-.17-.192-.169-.199-.16-.2-.16-.205-.15-.209-.15-.212-.142-.218-.137-.22-.132-.223-.128-.226-.122-.229-.116-.234-.11-.235-.107-.239-.098-.244-.094-.244-.088-.249-.082-.25-.075-.253-.069-.254-.065-.259-.056-.26-.05-.264-.045-.264-.038-.267-.03-.267-.024-.272-.019-.272-.01-.276-.005-.274v-89.815H631.98c-5.907 0-10.74-4.833-10.74-10.74 0-5.909 4.833-10.74 10.74-10.74H679.786l.276.003.276.01.272.02.271.022.27.032.267.037.264.045.262.05.261.057.258.064.256.07.252.074.252.083.247.087.245.093.241.1.242.106.235.11.233.117.23.121.226.128.225.131.22.14.215.141.212.148.21.152.204.16.201.16.196.167.194.171.188.176.185.18.181.184.175.19.172.193.166.197.164.201.156.205.154.21.146.211.143.217.138.22.133.224.126.226.122.23.116.232.112.236.104.238.1.244.094.244.087.25.081.25.077.252.07.256.062.258.057.26.051.263.044.265.038.266.03.268.025.272.017.273.011.275.002.274v89.815h11.733c5.906 0 10.741 4.835 10.741 10.741 0 5.905-4.834 10.74-10.74 10.74zm73.518-100.555v108.892c0 25.154-20.4 45.554-45.555 45.554h-63.79c-5.905 0-10.742 4.833-10.742 10.741 0 5.908 4.833 10.74 10.742 10.74h63.79a66.819 66.819 0 0 0 67.037-67.035h-.006l.006-.006V641.482l-.005-.274-.01-.275v-.002l-.019-.27-.023-.273-.03-.268-.039-.266-.045-.265-.05-.263-.058-.26-.063-.258v-.002l-.07-.254-.074-.253-.084-.25-.086-.249-.094-.244-.099-.244-.105-.238-.11-.236-.118-.233-.12-.229-.129-.226-.132-.224-.139-.22-.14-.217-.149-.212-.153-.209-.158-.205v-.002l-.16-.199-.168-.197v-.002l-.17-.192-.178-.189-.179-.185-.184-.179v-.002l-.19-.174-.193-.17-.197-.169-.2-.16-.206-.159-.21-.152v-.002l-.21-.146-.218-.142-.22-.139-.224-.13-.226-.129-.23-.12-.232-.118-.236-.11-.239-.106-.243-.1-.245-.093-.247-.087-.25-.083-.255-.075-.255-.069-.258-.064-.259-.057-.264-.05-.264-.045-.267-.037-.269-.032-.27-.023v-.002l-.273-.017-.275-.01v-.002l-.275-.002H716.238c-5.908 0-10.74 4.832-10.74 10.74s4.832 10.741 10.74 10.741z" style="fill:#2350a9;fill-opacity:1;fill-rule:evenodd;stroke:none" transform="matrix(.75921 0 0 -.75921 -358.64 678.865)"/><path d="M841.24 652.243h-42.104c-5.907 0-10.74-4.835-10.74-10.74 0-5.907 4.833-10.74 10.74-10.74h50.098c4.322-.013 8.486 2.48 9.901 6.69.245.596.438 1.22.573 1.862l16.763 55.03 22.938-57.458c1.578-3.95 5.545-6.15 9.632-6.125h67.33l.173.002.017.001c1.534.034 3.083.38 4.522 1.067v.002c5.33 2.55 7.24 8.838 5.053 14.325l-70.059 175.856c-2.186 5.487-8.997 7.602-14.325 5.051-5.329-2.55-7.238-8.836-5.053-14.325l63.941-160.498h-44.28l-31.405 78.663c-1.097 2.752-3.357 4.656-6.01 5.548l-.09.037c-5.525 2.093-12.129-.59-13.85-6.239z" style="fill:#f79210;fill-opacity:1;fill-rule:evenodd;stroke:none" transform="matrix(.75921 0 0 -.75921 -358.64 678.865)"/></svg>